<svg xmlns="http://www.w3.org/2000/svg" version="1.1" xmlns:xlink="http://www.w3.org/1999/xlink" xmlns:svgjs="http://svgjs.dev/svgjs" width="2000" height="343" viewBox="0 0 2000 343"><g transform="matrix(1,0,0,1,-1.2121184869587296,-0.3905718747898277)"><svg viewBox="0 0 396 68" data-background-color="#111111" preserveAspectRatio="xMidYMid meet" height="343" width="2000" xmlns="http://www.w3.org/2000/svg" xmlns:xlink="http://www.w3.org/1999/xlink"><g id="tight-bounds" transform="matrix(1,0,0,1,0.2399994604178346,0.07743115885045881)"><svg viewBox="0 0 395.52 67.8451376822991" height="67.8451376822991" width="395.52"><g><svg viewBox="0 0 395.52 67.8451376822991" height="67.8451376822991" width="395.52"><g><svg viewBox="0 0 395.52 67.8451376822991" height="67.8451376822991" width="395.52"><g id="textblocktransform"><svg viewBox="0 0 395.52 67.8451376822991" height="67.8451376822991" width="395.52" id="textblock"><g><svg viewBox="0 0 395.52 67.8451376822991" height="67.8451376822991" width="395.52"><g transform="matrix(1,0,0,1,0,0)"><svg width="395.52" viewBox="3.95 -40 236.08476124396 40.5" height="67.8451376822991" data-palette-color="#ffffff"><path d="M30.95-37.55L30.95-8Q30.95-3.95 28.25-1.95L28.25-1.95Q26.95-1 25.58-0.48 24.2 0.05 22.9 0.05L22.9 0.05 12 0.05Q10.7 0.05 9.33-0.48 7.95-1 6.65-1.95L6.65-1.95Q5.35-2.95 4.65-4.42 3.95-5.9 3.95-8L3.95-8 3.95-37.55Q3.95-39.95 6.9-39.95L6.9-39.95Q9.9-39.95 9.9-37.55L9.9-37.55 9.9-8.4Q9.9-7.1 10.65-6.05 11.4-5 13.25-5L13.25-5 21.65-5Q23.5-5 24.25-6.05 25-7.1 25-8.4L25-8.4 25-37.55Q25-39.95 27.95-39.95L27.95-39.95Q30.95-39.95 30.95-37.55L30.95-37.55ZM60.75-10.5L60.75-37.55Q60.75-39.95 63.7-39.95L63.7-39.95Q66.65-39.95 66.65-37.55L66.65-37.55 66.65-3.05Q66.65-1.3 64.8-0.5L64.8-0.5 64.85-0.5Q64.05-0.15 63.15 0.05 62.25 0.25 61.4 0.25L61.4 0.25Q60.75 0.25 60.05 0.13 59.35 0 58.72-0.28 58.1-0.55 57.57-1.03 57.05-1.5 56.75-2.2L56.75-2.2 45.9-29.25 44.55-29.1 44.55-2.1Q44.55 0.3 41.55 0.3L41.55 0.3Q38.6 0.3 38.6-2.1L38.6-2.1 38.6-36.55Q38.6-38.6 40.4-39.3L40.4-39.3Q42.05-39.95 43.9-39.95L43.9-39.95Q45.2-39.95 46.52-39.43 47.85-38.9 48.55-37.45L48.55-37.45 59.35-10.35 60.75-10.5ZM80.25-37.55L80.25-2.1Q80.25 0.3 77.25 0.3L77.25 0.3Q74.3 0.3 74.3-2.1L74.3-2.1 74.3-37.55Q74.3-39.95 77.25-39.95L77.25-39.95Q80.25-39.95 80.25-37.55L80.25-37.55ZM99.99 0.25L99.99 0.25Q98.99 0.25 97.87-0.08 96.74-0.4 96.24-1.3L96.24-1.3Q95.09-5.2 93.84-9.3 92.59-13.4 91.34-17.35L91.34-17.35Q89.94-22 88.34-27.03 86.74-32.05 85.34-36.65L85.34-36.65Q85.04-37.75 85.69-38.58 86.34-39.4 87.54-39.8L87.54-39.8Q88.29-40 88.84-40L88.84-40Q90.54-40 91.04-38.3L91.04-38.3 94.74-26.45Q95.24-24.65 95.92-22.5 96.59-20.35 97.29-18.1 97.99-15.85 98.69-13.63 99.39-11.4 99.99-9.5L99.99-9.5Q100.94-12.65 102.07-16.32 103.19-20 104.37-23.8 105.54-27.6 106.69-31.33 107.84-35.05 108.84-38.3L108.84-38.3Q109.39-40 110.99-40L110.99-40Q111.59-40 112.39-39.8L112.39-39.8Q115.14-39.05 114.54-36.65L114.54-36.65Q111.84-27.9 109.09-19 106.34-10.1 103.64-1.3L103.64-1.3Q103.24-0.3 102.17-0.03 101.09 0.25 99.99 0.25ZM140.79 0.05L122.49 0.05Q120.64 0.05 119.99-0.9 119.34-1.85 119.34-3L119.34-3 119.34-36.7Q119.34-37.85 119.99-38.78 120.64-39.7 122.49-39.7L122.49-39.7 139.89-39.7Q141.74-39.7 141.84-37.2L141.84-37.2Q141.94-34.65 139.89-34.65L139.89-34.65 125.24-34.65 125.24-5 140.79-5Q142.64-5 142.69-2.55L142.69-2.55Q142.79 0.05 140.79 0.05L140.79 0.05ZM138.04-20.65L138.04-20.65Q138.04-18.9 136.81-17.7 135.59-16.5 133.84-16.5L133.84-16.5Q132.14-16.5 130.94-17.7 129.74-18.9 129.74-20.65L129.74-20.65Q129.74-22.4 130.94-23.6 132.14-24.8 133.84-24.8L133.84-24.8Q135.59-24.8 136.81-23.6 138.04-22.4 138.04-20.65ZM171.69-0.6L162.24-16.45 158.39-16.45Q157.54-16.45 157.06-17.13 156.59-17.8 156.59-18.95L156.59-18.95Q156.59-21.5 158.69-21.5L158.69-21.5 164.54-21.5Q166.39-21.5 167.14-22.55 167.89-23.6 167.89-24.85L167.89-24.85 167.89-31.3Q167.89-32.55 167.14-33.6 166.39-34.65 164.54-34.65L164.54-34.65 153.99-34.65 153.99-2.05Q153.99 0.35 151.04 0.35L151.04 0.35Q148.09 0.35 148.09-2.05L148.09-2.05 148.09-36.7Q148.09-38.5 149.01-39.1 149.94-39.7 151.24-39.7L151.24-39.7 165.79-39.7Q167.09-39.7 168.49-39.15 169.89-38.6 171.19-37.75L171.19-37.75 171.14-37.75Q172.44-36.8 173.14-35.27 173.84-33.75 173.84-31.75L173.84-31.75 173.84-24.45Q173.84-20.4 171.14-18.4L171.14-18.4Q170.59-18 169.96-17.65 169.34-17.3 168.69-16.95L168.69-16.95 176.69-3.75Q176.84-3.5 176.99-3.1 177.14-2.7 177.14-2.45L177.14-2.45Q177.14-1.25 175.44-0.15L175.44-0.15 175.44-0.2Q174.29 0.5 173.49 0.5L173.49 0.5Q172.34 0.5 171.64-0.65L171.64-0.65 171.69-0.6ZM191.09-22.85L200.74-22.85Q202.04-22.85 203.44-22.3 204.84-21.75 206.14-20.85L206.14-20.85 206.09-20.85Q207.39-19.95 208.09-18.4 208.79-16.85 208.79-14.85L208.79-14.85 208.79-8Q208.79-3.95 206.09-1.95L206.09-1.95Q204.79-1 203.41-0.48 202.04 0.05 200.74 0.05L200.74 0.05 189.84 0.05Q188.54 0.05 187.16-0.48 185.79-1 184.49-1.95L184.49-1.95Q181.79-3.95 181.79-8L181.79-8 181.79-11.3Q181.79-13.65 184.74-13.65L184.74-13.65Q187.74-13.65 187.74-11.3L187.74-11.3 187.74-8.4Q187.74-7.1 188.49-6.05 189.24-5 191.09-5L191.09-5 199.49-5Q201.34-5 202.09-6.05 202.84-7.1 202.84-8.4L202.84-8.4 202.84-14.45Q202.84-15.7 202.09-16.78 201.34-17.85 199.49-17.85L199.49-17.85 189.84-17.85Q187.24-17.85 184.49-19.75L184.49-19.75Q181.79-21.85 181.79-25.8L181.79-25.8 181.79-31.75Q181.79-33.75 182.49-35.27 183.19-36.8 184.49-37.75L184.49-37.75 184.44-37.75Q185.74-38.6 187.14-39.15 188.54-39.7 189.84-39.7L189.84-39.7 200.74-39.7Q202.04-39.7 203.44-39.15 204.84-38.6 206.14-37.75L206.14-37.75 206.09-37.75Q207.39-36.8 208.09-35.27 208.79-33.75 208.79-31.75L208.79-31.75 208.79-28.8Q208.79-26.45 205.79-26.45L205.79-26.45Q202.84-26.45 202.84-28.8L202.84-28.8 202.84-31.3Q202.84-32.55 202.09-33.6 201.34-34.65 199.49-34.65L199.49-34.65 191.09-34.65Q189.24-34.65 188.49-33.6 187.74-32.55 187.74-31.3L187.74-31.3 187.74-26.2Q187.74-24.9 188.49-23.88 189.24-22.85 191.09-22.85L191.09-22.85ZM238.13 0.05L219.83 0.05Q217.98 0.05 217.33-0.9 216.68-1.85 216.68-3L216.68-3 216.68-36.7Q216.68-37.85 217.33-38.78 217.98-39.7 219.83-39.7L219.83-39.7 237.23-39.7Q239.08-39.7 239.18-37.2L239.18-37.2Q239.28-34.65 237.23-34.65L237.23-34.65 222.58-34.65 222.58-5 238.13-5Q239.98-5 240.03-2.55L240.03-2.55Q240.13 0.05 238.13 0.05L238.13 0.05ZM235.38-20.65L235.38-20.65Q235.38-18.9 234.16-17.7 232.93-16.5 231.18-16.5L231.18-16.5Q229.48-16.5 228.28-17.7 227.08-18.9 227.08-20.65L227.08-20.65Q227.08-22.4 228.28-23.6 229.48-24.8 231.18-24.8L231.18-24.8Q232.93-24.8 234.16-23.6 235.38-22.4 235.38-20.65Z" opacity="1" transform="matrix(1,0,0,1,0,0)" fill="#000000" class="wordmark-text-0" data-fill-palette-color="primary" id="text-0"></path></svg></g></svg></g></svg></g></svg></g></svg></g><defs></defs></svg><rect width="395.52" height="67.8451376822991" fill="none" stroke="none" visibility="hidden"></rect></g></svg></g></svg>